inDegrees=no
num_controls=7
num_derivatives=13
num_iterations=127
num_multipliers=7
num_parameters=0
num_slacks=7
num_states=26
objective=6.027024
objective_accelerations=1.014215
objective_balance=0.088640
objective_effort=0.677300
objective_height=4.166604
objective_ligament=0.080265
solver_duration=1258.326535
status=Solve_Succeeded
success=true
DataType=double
version=3
OpenSimVersion=4.4-2022-07-23-0e9fedc
endheader
time	/jointset/ground_pelvis/pelvis_tilt/value	/jointset/ground_pelvis/pelvis_tx/value	/jointset/ground_pelvis/pelvis_ty/value	/jointset/hip_l/hip_flexion_l/value	/jointset/hip_l/hip_adduction_l/value	/jointset/hip_l/hip_rotation_l/value	/jointset/back/lumbar_extension/value	/jointset/patellofemoral_l/patellar_flexion_l/value	/jointset/knee_l/knee_flexion_l/value	/jointset/knee_l/knee_adduction_l/value	/jointset/knee_l/knee_rotation_l/value	/jointset/ankle_l/ankle_angle_l/value	/jointset/subtalar_l/subtalar_angle_l/value	/jointset/ground_pelvis/pelvis_tilt/speed	/jointset/ground_pelvis/pelvis_tx/speed	/jointset/ground_pelvis/pelvis_ty/speed	/jointset/hip_l/hip_flexion_l/speed	/jointset/hip_l/hip_adduction_l/speed	/jointset/hip_l/hip_rotation_l/speed	/jointset/back/lumbar_extension/speed	/jointset/patellofemoral_l/patellar_flexion_l/speed	/jointset/knee_l/knee_flexion_l/speed	/jointset/knee_l/knee_adduction_l/speed	/jointset/knee_l/knee_rotation_l/speed	/jointset/ankle_l/ankle_angle_l/speed	/jointset/subtalar_l/subtalar_angle_l/speed	/forceset/tau_hip_flexion_l	/forceset/tau_hip_adduction_l	/forceset/tau_hip_rotation_l	/forceset/tau_knee_flexion_l	/forceset/tau_ankle_angle_l	/forceset/tau_subtalar_angle_l	/forceset/tau_lumbar_extension	lambda_cid13_p0	lambda_cid13_p1	lambda_cid13_p2	lambda_cid13_p3	lambda_cid13_p4	lambda_cid13_p5	lambda_cid14_p0	/jointset/ground_pelvis/pelvis_tilt/accel	/jointset/ground_pelvis/pelvis_tx/accel	/jointset/ground_pelvis/pelvis_ty/accel	/jointset/hip_l/hip_flexion_l/accel	/jointset/hip_l/hip_adduction_l/accel	/jointset/hip_l/hip_rotation_l/accel	/jointset/back/lumbar_extension/accel	/jointset/patellofemoral_l/patellar_flexion_l/accel	/jointset/knee_l/knee_flexion_l/accel	/jointset/knee_l/knee_adduction_l/accel	/jointset/knee_l/knee_rotation_l/accel	/jointset/ankle_l/ankle_angle_l/accel	/jointset/subtalar_l/subtalar_angle_l/accel	gamma_cid13_p0	gamma_cid13_p1	gamma_cid13_p2	gamma_cid13_p3	gamma_cid13_p4	gamma_cid13_p5	gamma_cid14_p0
1.5	-0.07148867816820614	-0.04606373474984326	0.750265710378306	1.095844409905836	-0.3102044788824915	-0.07515094672763366	-0.8413408737184824	1.179907268657347	1.179907268657175	0.02072044468094799	-0.174528347027174	0.2485377871270444	0.07735877627069923	0.4418362584014449	0.2213605227709782	0.885969478064989	-3.092024216672581	0.04560629979402976	-0.6519587892885419	0.792249431705322	-3.027059380349401	-3.027059380349411	-0.4714240651187836	-3.536303106426841e-07	-0.5675599602000417	-0.1846675947706463	-0.2687670899304913	0.02213793990718835	-0.01775741857587924	-0.2834604460131654	0.07365866125672201	0.04453753685549772	0.3304139501847628	-16.35410985825512	-14.9647044236606	0.2015963095444181	-18.90620336636423	-656.781603601027	-63.87953058065391	-1.30210029084844	1.084359214248964	1.289861357480397	-1.050087497993798	-1.395527463990446	0.3721031983155721	-0.7619068563162444	2.817990701312679	-1.913851688546315	-1.913851688546321	-0.1942429719914698	0.0834091878096497	-1.71573779688292	-0.1209661062002595	6.295030447331828e-07	3.985071950507668e-06	-1.601806564169636e-06	4.527561880656256e-07	7.355747907584731e-07	4.685820144118528e-07	7.380282308397097e-07
1.51	-0.06701684478763562	-0.04378578375088357	0.7590708444309745	1.064857032069401	-0.3097320391508256	-0.08170993482037542	-0.8332788540562929	1.149544377610173	1.149544377610314	0.01599424881092521	-0.1745286281372244	0.2427774024439709	0.07550372921428886	0.4524010582366607	0.2342081405953839	0.874842296274382	-3.105072702522563	0.04888441143477009	-0.6598171194710598	0.8200753060850481	-3.045111616228518	-3.045111616228512	-0.4738072045918167	-4.755614369855526e-05	-0.5843432943826683	-0.1862516335191343	-0.2583597893557695	0.0221099024538869	-0.01707906896269173	-0.2757287176134121	0.07378621724175186	0.04454183749706657	0.3199760751962673	-15.71675874326868	-15.27655814544165	0.4779236450833029	-18.77890273681244	-646.864368402953	-63.90871073254538	-1.921190318360438	1.023196003780272	1.279071369109557	-1.176122808629149	-1.202646740613567	0.3059569007997822	-0.7937118132283081	2.75300660895572	-1.689985858875793	-1.689985858873281	-0.2583894206497965	-0.0478281354128919	-1.633357787891413	-0.1640981884425029	6.764407496817493e-07	4.279739026236715e-06	-1.700111819602561e-06	4.504014804284417e-07	7.983575622881376e-07	6.574182063359178e-07	7.731536432765936e-07
1.52	-0.06244323228160005	-0.04137998469884257	0.7677582888079301	1.033750541855431	-0.3092267599519874	-0.08834668935774204	-0.8249409514897768	1.119013148939952	1.119013148940411	0.0112446135490475	-0.1745291899053692	0.2368544391072822	0.07363544668453947	0.4621920834968061	0.2469301333872436	0.8624315429223788	-3.115846692177001	0.05217419322937888	-0.6675120782139305	0.8474260125709245	-3.06072690495889	-3.060726904958867	-0.4761119434924755	-5.648523708260412e-05	-0.6000756909228477	-0.1873146894383977	-0.2479524887810654	0.0220818650005676	-0.01640071934948215	-0.2679969892136599	0.07391377322678019	0.04454613813861186	0.3095382002077581	-15.07449260027317	-15.60350382545356	0.7729131419620859	-18.73571471828356	-636.8921524900052	-64.03562971652981	-2.652297594967536	0.9296042992347042	1.264736350971318	-1.306801810273033	-0.9406282248815271	0.3744372290892973	-0.7292325683867683	2.722957122542599	-1.426462258797389	-1.426462258797366	-0.178562857516557	0.09106387181059196	-1.505550268393266	-0.0167695403551792	7.210971404403435e-07	4.630857468665952e-06	-1.746618868124719e-06	4.576098714359236e-07	8.659753200449636e-07	8.794243494635675e-07	8.082960819417495e-07
1.53	-0.05777555020398393	-0.03884771320103152	0.7763153708867517	1.002547476820125	-0.3086886489799925	-0.09506007117712786	-0.816332353919851	1.088337931520677	1.088337931520849	0.006472279928627153	-0.1745300741375311	0.2307794733513181	0.07175900159131594	0.4712049972627436	0.2594894979282196	0.8487817680435296	-3.124371185726512	0.0554525423092193	-0.6751323360612096	0.8741856499027783	-3.073889055848892	-3.073889055848921	-0.4783539032212761	-0.0001072020964717567	-0.6147299627692491	-0.187881795111792	-0.2373933326272626	0.02174119884630592	-0.01575053583350662	-0.2607466132895783	0.0741523213110112	0.044278681555367	0.2989271786933313	-14.44275791259531	-15.79748727117255	1.03174777728642	-18.52167541415379	-627.274303536571	-63.99291113298406	-3.492130405678497	0.8662895378991889	1.246433124614373	-1.424335510411305	-0.749028460256226	0.3049958461891863	-0.772728337852608	2.636289311560698	-1.197135503053595	-1.197135503061324	-0.2459948082001164	-0.05144440054652004	-1.416983437068042	-0.06343874347538613	7.633296348720924e-07	5.04195548821414e-06	-1.738090321804188e-06	4.74979054753363e-07	9.387302506681487e-07	1.136673565745025e-06	8.434566109744447e-07
1.54	-0.05302190806419453	-0.03619086873402052	0.7847299011800409	0.9712710331412594	-0.3081176620974516	-0.1018485167639778	-0.8074593955219973	1.05754388379271	1.057543883792604	0.001677730255417334	-0.1745311265254187	0.2245636413180277	0.06987953390882948	0.4793840959337543	0.2718447272272336	0.8339211858158725	-3.130522420886836	0.05874937533937885	-0.6825248317066592	0.9002981781568152	-3.084492966696972	-3.084492966697051	-0.4805551540556142	-9.011638517821956e-05	-0.6282489463878266	-0.1879192072909399	-0.2268341764734729	0.02140053269202024	-0.01510035231744238	-0.253496237365494	0.0743908693952382	0.04401122497208895	0.2883161571788959	-13.80195332325907	-16.00838602022719	1.310787005394907	-18.40072869462838	-617.5453874004684	-64.0506548746071	-4.438992849087855	0.762841280249094	1.223909302579057	-1.548963280034563	-0.4659765470439955	0.378134019153068	-0.6836801280208977	2.593535306979062	-0.9148142504128045	-0.9148142504127799	-0.1704210786240446	0.1046243859471233	-1.27849262282827	0.08916915849415953	7.980170934874992e-07	5.473810154658168e-06	-1.687673291522002e-06	5.019281864567354e-07	1.005700566899244e-06	1.398659550979169e-06	8.765469558836005e-07
